<svg xmlns="http://www.w3.org/2000/svg" xmlns:xlink="http://www.w3.org/1999/xlink" width="500" zoomAndPan="magnify" viewBox="0 0 375 374.999991" height="500" preserveAspectRatio="xMidYMid meet" version="1.0"><defs><filter x="0%" y="0%" width="100%" height="100%" id="202f954683"><feColorMatrix values="0 0 0 0 1 0 0 0 0 1 0 0 0 0 1 0 0 0 1 0" color-interpolation-filters="sRGB"/></filter><g/><linearGradient x1="0" gradientTransform="matrix(0.75, 0, 0, 0.75, 0.0000045, 0)" y1="250" x2="499.999979" gradientUnits="userSpaceOnUse" y2="250" id="ccad7713f1"><stop stop-opacity="1" stop-color="rgb(0%, 59.199524%, 69.799805%)" offset="0"/><stop stop-opacity="1" stop-color="rgb(0.192261%, 59.300232%, 69.659424%)" offset="0.0078125"/><stop stop-opacity="1" stop-color="rgb(0.576782%, 59.501648%, 69.380188%)" offset="0.015625"/><stop stop-opacity="1" stop-color="rgb(0.96283%, 59.70459%, 69.100952%)" offset="0.0234375"/><stop stop-opacity="1" stop-color="rgb(1.348877%, 59.907532%, 68.821716%)" offset="0.03125"/><stop stop-opacity="1" stop-color="rgb(1.734924%, 60.108948%, 68.544006%)" offset="0.0390625"/><stop stop-opacity="1" stop-color="rgb(2.120972%, 60.31189%, 68.264771%)" offset="0.046875"/><stop stop-opacity="1" stop-color="rgb(2.507019%, 60.513306%, 67.985535%)" offset="0.0546875"/><stop stop-opacity="1" stop-color="rgb(2.893066%, 60.716248%, 67.706299%)" offset="0.0625"/><stop stop-opacity="1" stop-color="rgb(3.279114%, 60.919189%, 67.428589%)" offset="0.0703125"/><stop stop-opacity="1" stop-color="rgb(3.665161%, 61.120605%, 67.149353%)" offset="0.078125"/><stop stop-opacity="1" stop-color="rgb(4.051208%, 61.323547%, 66.870117%)" offset="0.0859375"/><stop stop-opacity="1" stop-color="rgb(4.437256%, 61.524963%, 66.590881%)" offset="0.09375"/><stop stop-opacity="1" stop-color="rgb(4.823303%, 61.727905%, 66.311646%)" offset="0.101562"/><stop stop-opacity="1" stop-color="rgb(5.209351%, 61.930847%, 66.033936%)" offset="0.109375"/><stop stop-opacity="1" stop-color="rgb(5.593872%, 62.132263%, 65.7547%)" offset="0.117188"/><stop stop-opacity="1" stop-color="rgb(5.979919%, 62.335205%, 65.475464%)" offset="0.125"/><stop stop-opacity="1" stop-color="rgb(6.365967%, 62.538147%, 65.196228%)" offset="0.132812"/><stop stop-opacity="1" stop-color="rgb(6.752014%, 62.739563%, 64.918518%)" offset="0.140625"/><stop stop-opacity="1" stop-color="rgb(7.138062%, 62.942505%, 64.639282%)" offset="0.148437"/><stop stop-opacity="1" stop-color="rgb(7.524109%, 63.143921%, 64.360046%)" offset="0.15625"/><stop stop-opacity="1" stop-color="rgb(7.910156%, 63.346863%, 64.080811%)" offset="0.164062"/><stop stop-opacity="1" stop-color="rgb(8.296204%, 63.549805%, 63.801575%)" offset="0.171875"/><stop stop-opacity="1" stop-color="rgb(8.682251%, 63.751221%, 63.523865%)" offset="0.179687"/><stop stop-opacity="1" stop-color="rgb(9.068298%, 63.954163%, 63.244629%)" offset="0.1875"/><stop stop-opacity="1" stop-color="rgb(9.454346%, 64.155579%, 62.965393%)" offset="0.195312"/><stop stop-opacity="1" stop-color="rgb(9.840393%, 64.358521%, 62.686157%)" offset="0.203125"/><stop stop-opacity="1" stop-color="rgb(10.22644%, 64.561462%, 62.406921%)" offset="0.210938"/><stop stop-opacity="1" stop-color="rgb(10.612488%, 64.762878%, 62.129211%)" offset="0.21875"/><stop stop-opacity="1" stop-color="rgb(10.997009%, 64.96582%, 61.849976%)" offset="0.226562"/><stop stop-opacity="1" stop-color="rgb(11.383057%, 65.167236%, 61.57074%)" offset="0.234375"/><stop stop-opacity="1" stop-color="rgb(11.769104%, 65.370178%, 61.291504%)" offset="0.242188"/><stop stop-opacity="1" stop-color="rgb(12.155151%, 65.57312%, 61.013794%)" offset="0.25"/><stop stop-opacity="1" stop-color="rgb(12.541199%, 65.774536%, 60.734558%)" offset="0.257812"/><stop stop-opacity="1" stop-color="rgb(12.927246%, 65.977478%, 60.455322%)" offset="0.265625"/><stop stop-opacity="1" stop-color="rgb(13.313293%, 66.178894%, 60.176086%)" offset="0.273437"/><stop stop-opacity="1" stop-color="rgb(13.699341%, 66.381836%, 59.896851%)" offset="0.28125"/><stop stop-opacity="1" stop-color="rgb(14.085388%, 66.584778%, 59.619141%)" offset="0.289062"/><stop stop-opacity="1" stop-color="rgb(14.471436%, 66.786194%, 59.339905%)" offset="0.296875"/><stop stop-opacity="1" stop-color="rgb(14.857483%, 66.989136%, 59.060669%)" offset="0.304687"/><stop stop-opacity="1" stop-color="rgb(15.24353%, 67.192078%, 58.781433%)" offset="0.3125"/><stop stop-opacity="1" stop-color="rgb(15.629578%, 67.393494%, 58.502197%)" offset="0.320312"/><stop stop-opacity="1" stop-color="rgb(16.015625%, 67.596436%, 58.224487%)" offset="0.328125"/><stop stop-opacity="1" stop-color="rgb(16.400146%, 67.797852%, 57.945251%)" offset="0.335937"/><stop stop-opacity="1" stop-color="rgb(16.786194%, 68.000793%, 57.666016%)" offset="0.34375"/><stop stop-opacity="1" stop-color="rgb(17.172241%, 68.203735%, 57.38678%)" offset="0.351562"/><stop stop-opacity="1" stop-color="rgb(17.558289%, 68.405151%, 57.10907%)" offset="0.359375"/><stop stop-opacity="1" stop-color="rgb(17.944336%, 68.608093%, 56.829834%)" offset="0.367187"/><stop stop-opacity="1" stop-color="rgb(18.330383%, 68.809509%, 56.550598%)" offset="0.375"/><stop stop-opacity="1" stop-color="rgb(18.716431%, 69.012451%, 56.271362%)" offset="0.382812"/><stop stop-opacity="1" stop-color="rgb(19.102478%, 69.215393%, 55.992126%)" offset="0.390625"/><stop stop-opacity="1" stop-color="rgb(19.488525%, 69.416809%, 55.714417%)" offset="0.398438"/><stop stop-opacity="1" stop-color="rgb(19.874573%, 69.619751%, 55.435181%)" offset="0.40625"/><stop stop-opacity="1" stop-color="rgb(20.26062%, 69.821167%, 55.155945%)" offset="0.414062"/><stop stop-opacity="1" stop-color="rgb(20.646667%, 70.024109%, 54.876709%)" offset="0.421875"/><stop stop-opacity="1" stop-color="rgb(21.032715%, 70.227051%, 54.598999%)" offset="0.429688"/><stop stop-opacity="1" stop-color="rgb(21.418762%, 70.428467%, 54.319763%)" offset="0.4375"/><stop stop-opacity="1" stop-color="rgb(21.803284%, 70.631409%, 54.040527%)" offset="0.445312"/><stop stop-opacity="1" stop-color="rgb(22.189331%, 70.832825%, 53.761292%)" offset="0.453125"/><stop stop-opacity="1" stop-color="rgb(22.575378%, 71.035767%, 53.482056%)" offset="0.460938"/><stop stop-opacity="1" stop-color="rgb(22.961426%, 71.238708%, 53.204346%)" offset="0.46875"/><stop stop-opacity="1" stop-color="rgb(23.347473%, 71.440125%, 52.92511%)" offset="0.476562"/><stop stop-opacity="1" stop-color="rgb(23.733521%, 71.643066%, 52.645874%)" offset="0.484375"/><stop stop-opacity="1" stop-color="rgb(24.119568%, 71.846008%, 52.366638%)" offset="0.492188"/><stop stop-opacity="1" stop-color="rgb(24.505615%, 72.047424%, 52.087402%)" offset="0.5"/><stop stop-opacity="1" stop-color="rgb(24.891663%, 72.250366%, 51.809692%)" offset="0.507812"/><stop stop-opacity="1" stop-color="rgb(25.27771%, 72.451782%, 51.530457%)" offset="0.515625"/><stop stop-opacity="1" stop-color="rgb(25.663757%, 72.654724%, 51.251221%)" offset="0.523437"/><stop stop-opacity="1" stop-color="rgb(26.049805%, 72.857666%, 50.971985%)" offset="0.53125"/><stop stop-opacity="1" stop-color="rgb(26.435852%, 73.059082%, 50.694275%)" offset="0.539062"/><stop stop-opacity="1" stop-color="rgb(26.821899%, 73.262024%, 50.415039%)" offset="0.546875"/><stop stop-opacity="1" stop-color="rgb(27.206421%, 73.46344%, 50.135803%)" offset="0.554687"/><stop stop-opacity="1" stop-color="rgb(27.592468%, 73.666382%, 49.856567%)" offset="0.5625"/><stop stop-opacity="1" stop-color="rgb(27.978516%, 73.869324%, 49.577332%)" offset="0.570312"/><stop stop-opacity="1" stop-color="rgb(28.364563%, 74.07074%, 49.299622%)" offset="0.578125"/><stop stop-opacity="1" stop-color="rgb(28.75061%, 74.273682%, 49.020386%)" offset="0.585937"/><stop stop-opacity="1" stop-color="rgb(29.136658%, 74.475098%, 48.74115%)" offset="0.59375"/><stop stop-opacity="1" stop-color="rgb(29.522705%, 74.67804%, 48.461914%)" offset="0.601562"/><stop stop-opacity="1" stop-color="rgb(29.908752%, 74.880981%, 48.182678%)" offset="0.609375"/><stop stop-opacity="1" stop-color="rgb(30.2948%, 75.082397%, 47.904968%)" offset="0.617187"/><stop stop-opacity="1" stop-color="rgb(30.680847%, 75.285339%, 47.625732%)" offset="0.625"/><stop stop-opacity="1" stop-color="rgb(31.066895%, 75.486755%, 47.346497%)" offset="0.632812"/><stop stop-opacity="1" stop-color="rgb(31.452942%, 75.689697%, 47.067261%)" offset="0.640625"/><stop stop-opacity="1" stop-color="rgb(31.838989%, 75.892639%, 46.789551%)" offset="0.648437"/><stop stop-opacity="1" stop-color="rgb(32.225037%, 76.094055%, 46.510315%)" offset="0.65625"/><stop stop-opacity="1" stop-color="rgb(32.609558%, 76.296997%, 46.231079%)" offset="0.664062"/><stop stop-opacity="1" stop-color="rgb(32.995605%, 76.498413%, 45.951843%)" offset="0.671875"/><stop stop-opacity="1" stop-color="rgb(33.381653%, 76.701355%, 45.672607%)" offset="0.679687"/><stop stop-opacity="1" stop-color="rgb(33.7677%, 76.904297%, 45.394897%)" offset="0.6875"/><stop stop-opacity="1" stop-color="rgb(34.153748%, 77.105713%, 45.115662%)" offset="0.695312"/><stop stop-opacity="1" stop-color="rgb(34.539795%, 77.308655%, 44.836426%)" offset="0.703125"/><stop stop-opacity="1" stop-color="rgb(34.925842%, 77.511597%, 44.55719%)" offset="0.710937"/><stop stop-opacity="1" stop-color="rgb(35.31189%, 77.713013%, 44.27948%)" offset="0.71875"/><stop stop-opacity="1" stop-color="rgb(35.697937%, 77.915955%, 44.000244%)" offset="0.726562"/><stop stop-opacity="1" stop-color="rgb(36.083984%, 78.117371%, 43.721008%)" offset="0.734375"/><stop stop-opacity="1" stop-color="rgb(36.470032%, 78.320312%, 43.441772%)" offset="0.742187"/><stop stop-opacity="1" stop-color="rgb(36.856079%, 78.523254%, 43.162537%)" offset="0.75"/><stop stop-opacity="1" stop-color="rgb(37.242126%, 78.72467%, 42.884827%)" offset="0.757812"/><stop stop-opacity="1" stop-color="rgb(37.628174%, 78.927612%, 42.605591%)" offset="0.765625"/><stop stop-opacity="1" stop-color="rgb(38.012695%, 79.129028%, 42.326355%)" offset="0.773438"/><stop stop-opacity="1" stop-color="rgb(38.398743%, 79.33197%, 42.047119%)" offset="0.78125"/><stop stop-opacity="1" stop-color="rgb(38.78479%, 79.534912%, 41.767883%)" offset="0.789062"/><stop stop-opacity="1" stop-color="rgb(39.170837%, 79.736328%, 41.490173%)" offset="0.796875"/><stop stop-opacity="1" stop-color="rgb(39.556885%, 79.93927%, 41.210938%)" offset="0.804688"/><stop stop-opacity="1" stop-color="rgb(39.942932%, 80.140686%, 40.931702%)" offset="0.8125"/><stop stop-opacity="1" stop-color="rgb(40.328979%, 80.343628%, 40.652466%)" offset="0.820312"/><stop stop-opacity="1" stop-color="rgb(40.715027%, 80.54657%, 40.374756%)" offset="0.828125"/><stop stop-opacity="1" stop-color="rgb(41.101074%, 80.747986%, 40.09552%)" offset="0.835938"/><stop stop-opacity="1" stop-color="rgb(41.487122%, 80.950928%, 39.816284%)" offset="0.84375"/><stop stop-opacity="1" stop-color="rgb(41.873169%, 81.152344%, 39.537048%)" offset="0.851562"/><stop stop-opacity="1" stop-color="rgb(42.259216%, 81.355286%, 39.257812%)" offset="0.859375"/><stop stop-opacity="1" stop-color="rgb(42.645264%, 81.558228%, 38.980103%)" offset="0.867188"/><stop stop-opacity="1" stop-color="rgb(43.031311%, 81.759644%, 38.700867%)" offset="0.875"/><stop stop-opacity="1" stop-color="rgb(43.415833%, 81.962585%, 38.421631%)" offset="0.882812"/><stop stop-opacity="1" stop-color="rgb(43.80188%, 82.165527%, 38.142395%)" offset="0.890625"/><stop stop-opacity="1" stop-color="rgb(44.187927%, 82.366943%, 37.863159%)" offset="0.898438"/><stop stop-opacity="1" stop-color="rgb(44.573975%, 82.569885%, 37.585449%)" offset="0.90625"/><stop stop-opacity="1" stop-color="rgb(44.960022%, 82.771301%, 37.306213%)" offset="0.914062"/><stop stop-opacity="1" stop-color="rgb(45.346069%, 82.974243%, 37.026978%)" offset="0.921875"/><stop stop-opacity="1" stop-color="rgb(45.732117%, 83.177185%, 36.747742%)" offset="0.929688"/><stop stop-opacity="1" stop-color="rgb(46.118164%, 83.378601%, 36.470032%)" offset="0.9375"/><stop stop-opacity="1" stop-color="rgb(46.504211%, 83.581543%, 36.190796%)" offset="0.945312"/><stop stop-opacity="1" stop-color="rgb(46.890259%, 83.782959%, 35.91156%)" offset="0.953125"/><stop stop-opacity="1" stop-color="rgb(47.276306%, 83.985901%, 35.632324%)" offset="0.960938"/><stop stop-opacity="1" stop-color="rgb(47.662354%, 84.188843%, 35.353088%)" offset="0.96875"/><stop stop-opacity="1" stop-color="rgb(48.048401%, 84.390259%, 35.075378%)" offset="0.976562"/><stop stop-opacity="1" stop-color="rgb(48.432922%, 84.593201%, 34.796143%)" offset="0.984375"/><stop stop-opacity="1" stop-color="rgb(48.81897%, 84.794617%, 34.516907%)" offset="0.992188"/><stop stop-opacity="1" stop-color="rgb(49.205017%, 84.997559%, 34.237671%)" offset="1"/></linearGradient><clipPath id="a22bd7cdd6"><path d="M 102 76 L 250 76 L 250 284 L 102 284 Z M 102 76 " clip-rule="nonzero"/></clipPath><clipPath id="1fa5ef1634"><path d="M 106.933594 74.613281 L 249.402344 77.554688 L 245.148438 283.757812 L 102.679688 280.820312 Z M 106.933594 74.613281 " clip-rule="nonzero"/></clipPath><clipPath id="d59d96ad41"><path d="M 54.863281 73.539062 L 319.558594 79 L 314.964844 301.703125 L 50.269531 296.242188 Z M 54.863281 73.539062 " clip-rule="nonzero"/></clipPath><mask id="8800d497c6"><g filter="url(#202f954683)"><rect x="-37.5" width="450" fill="#000000" y="-37.499999" height="449.999989" fill-opacity="0.5"/></g></mask><clipPath id="a62f0a67c3"><path d="M 1 0.480469 L 7 0.480469 L 7 8 L 1 8 Z M 1 0.480469 " clip-rule="nonzero"/></clipPath><clipPath id="1a4711c52c"><path d="M 7 0.480469 L 13 0.480469 L 13 8 L 7 8 Z M 7 0.480469 " clip-rule="nonzero"/></clipPath><clipPath id="c8d23485c8"><rect x="0" width="14" y="0" height="13"/></clipPath></defs><rect x="-37.5" width="450" fill="#ffffff" y="-37.499999" height="449.999989" fill-opacity="1"/><rect x="-37.5" fill="url(#ccad7713f1)" width="450" y="-37.499999" height="449.999989"/><g clip-path="url(#a22bd7cdd6)"><g clip-path="url(#1fa5ef1634)"><g clip-path="url(#d59d96ad41)"><path fill="#e1c340" d="M 314.789062 298.820312 C 314.300781 298.8125 313.796875 298.90625 313.304688 298.894531 L 300.085938 298.753906 C 294.445312 298.640625 288.8125 298.65625 283.167969 298.578125 C 275.765625 298.425781 268.363281 298.367188 260.964844 298.121094 C 255.53125 298.007812 250.101562 297.738281 244.675781 297.441406 C 239.933594 297.183594 235.179688 296.886719 230.441406 296.433594 C 224.664062 295.890625 218.886719 295.246094 213.121094 294.503906 C 207.648438 293.808594 202.191406 292.953125 196.808594 291.757812 C 195.324219 291.375 193.867188 290.902344 192.433594 290.347656 C 191.371094 289.957031 190.445312 289.355469 189.65625 288.542969 C 189.183594 288.097656 188.941406 287.550781 188.921875 286.902344 C 188.867188 284.496094 188.785156 282.085938 188.730469 279.679688 C 188.648438 275.957031 188.578125 272.234375 188.523438 268.503906 C 188.476562 265.59375 188.472656 262.683594 188.425781 259.773438 C 188.371094 255.898438 188.292969 252.023438 188.230469 248.148438 C 188.191406 245.503906 188.117188 242.738281 188.144531 240.042969 C 188.265625 234.226562 188.253906 228.410156 188.398438 222.59375 C 188.449219 220.242188 188.746094 217.90625 188.859375 215.554688 C 189.121094 212.191406 189.589844 208.855469 190.269531 205.550781 C 190.605469 203.746094 191.210938 202.035156 192.085938 200.421875 C 192.960938 198.808594 194.066406 197.371094 195.398438 196.109375 C 196.355469 195.152344 197.398438 194.289062 198.519531 193.527344 C 200.59375 192.167969 202.476562 190.582031 204.167969 188.765625 C 205.71875 187.074219 206.984375 185.191406 207.964844 183.117188 C 208.949219 181.042969 209.605469 178.871094 209.933594 176.601562 C 210.582031 172.15625 210.585938 167.710938 209.945312 163.261719 C 209.273438 158.433594 208.328125 153.65625 207.105469 148.9375 C 206.949219 148.273438 206.828125 147.609375 206.699219 146.945312 C 206.625 146.640625 206.527344 146.332031 206.402344 145.90625 C 206.019531 146.003906 205.65625 146.144531 205.308594 146.335938 C 204.414062 146.894531 203.558594 147.511719 202.746094 148.183594 C 199.753906 150.792969 197.128906 153.730469 194.871094 156.996094 C 192.617188 160.261719 190.796875 163.757812 189.417969 167.480469 C 188.554688 170.167969 187.875 172.90625 187.382812 175.6875 C 187.273438 176.292969 187.128906 176.890625 186.949219 177.476562 C 186.808594 177.910156 186.71875 178.476562 186.082031 178.425781 C 185.449219 178.371094 185.410156 177.828125 185.3125 177.378906 C 185.210938 176.890625 185.140625 176.402344 185.105469 175.90625 C 184.992188 173.835938 185.179688 171.796875 185.667969 169.78125 C 186.453125 166.203125 187.320312 162.636719 188.121094 159.054688 C 189.089844 154.753906 189.761719 150.402344 190.136719 146.007812 C 190.429688 142.488281 190.722656 138.945312 191.015625 135.382812 C 191.035156 134.445312 191.054688 133.507812 191.074219 132.566406 C 191.101562 132.332031 191.105469 132.09375 191.089844 131.855469 C 191.097656 131.59375 191.054688 131.339844 190.964844 131.09375 C 190.871094 130.847656 190.738281 130.628906 190.558594 130.4375 C 190.382812 130.242188 190.175781 130.089844 189.9375 129.980469 C 189.699219 129.867188 189.449219 129.804688 189.1875 129.792969 C 188.082031 129.609375 186.972656 129.546875 185.867188 129.394531 C 185.167969 129.300781 184.546875 129.152344 183.796875 129.007812 C 183.425781 129 183.113281 128.765625 183.058594 128.34375 C 183.046875 128.144531 183.09375 127.964844 183.203125 127.800781 C 183.3125 127.636719 183.457031 127.523438 183.644531 127.457031 C 183.929688 127.292969 184.230469 127.183594 184.550781 127.117188 C 185.96875 126.855469 187.390625 126.648438 188.808594 126.414062 C 189.394531 126.296875 189.917969 126.433594 190.375 126.816406 C 191.035156 127.347656 191.78125 127.523438 192.609375 127.335938 C 193.699219 127.109375 194.777344 126.8125 195.839844 126.492188 C 197.125 125.976562 198.449219 125.8125 199.820312 125.992188 C 200.753906 126.226562 201.675781 126.515625 202.578125 126.855469 C 203.523438 127.191406 204.453125 127.566406 205.386719 127.917969 C 205.65625 128.027344 205.9375 128.097656 206.226562 128.132812 C 206.457031 128.148438 206.65625 128.078125 206.824219 127.921875 C 206.917969 127.808594 206.949219 127.683594 206.914062 127.542969 C 206.882812 127.402344 206.800781 127.300781 206.667969 127.242188 C 206.847656 126.824219 206.578125 126.5 206.386719 126.191406 C 205.964844 125.523438 205.488281 124.851562 205.105469 124.222656 C 204.71875 123.59375 204.296875 123.070312 203.9375 122.453125 C 203.746094 122.175781 203.667969 121.871094 203.710938 121.535156 C 203.753906 121.199219 203.902344 120.921875 204.160156 120.699219 C 204.46875 120.386719 204.796875 120.09375 205.140625 119.820312 C 206.984375 118.308594 208.273438 116.417969 209.015625 114.148438 C 209.613281 112.351562 209.917969 110.507812 209.933594 108.613281 C 209.984375 106.234375 209.96875 103.855469 209.921875 101.476562 C 209.824219 98.199219 210.5 95.09375 211.953125 92.15625 C 212.464844 91.160156 212.984375 90.167969 213.496094 89.1875 C 214.570312 87.257812 215.460938 85.25 216.171875 83.160156 C 216.410156 82.402344 216.574219 81.628906 216.65625 80.84375 C 216.757812 79.734375 216.292969 79.300781 215.140625 79.238281 C 215.378906 79.359375 215.585938 79.527344 215.753906 79.734375 C 215.925781 79.941406 216.050781 80.171875 216.125 80.429688 C 216.199219 80.6875 216.222656 80.949219 216.191406 81.214844 C 216.160156 81.480469 216.078125 81.730469 215.945312 81.964844 C 215.796875 82.382812 215.621094 82.789062 215.417969 83.183594 C 215.019531 83.953125 214.566406 84.710938 214.152344 85.496094 C 213.148438 87.421875 212.066406 89.316406 211.179688 91.28125 C 210.324219 93.054688 209.75 94.914062 209.460938 96.859375 C 209.171875 98.804688 209.175781 100.75 209.476562 102.695312 C 209.824219 105.023438 209.691406 107.328125 209.082031 109.601562 C 208.292969 112.675781 207.003906 115.523438 205.214844 118.144531 C 204.546875 119.148438 203.851562 120.125 203.222656 121.144531 C 203.058594 121.324219 202.9375 121.53125 202.863281 121.765625 C 202.792969 122 202.773438 122.238281 202.808594 122.480469 C 202.847656 122.722656 202.933594 122.945312 203.070312 123.148438 C 203.207031 123.351562 203.382812 123.511719 203.597656 123.636719 C 204.828125 124.695312 205.847656 125.933594 206.652344 127.347656 C 206.753906 127.601562 206.640625 127.851562 206.441406 127.925781 C 206.242188 127.949219 206.070312 127.890625 205.929688 127.742188 C 205.175781 126.675781 204.160156 125.988281 202.894531 125.671875 C 202.238281 125.421875 201.578125 125.273438 200.867188 125.085938 C 200.609375 125.027344 200.355469 124.949219 200.105469 124.847656 C 199.984375 124.8125 199.875 124.753906 199.777344 124.667969 C 199.683594 124.582031 199.613281 124.476562 199.566406 124.359375 C 199.523438 124.238281 199.507812 124.113281 199.519531 123.988281 C 199.53125 123.859375 199.574219 123.742188 199.640625 123.632812 C 199.714844 123.472656 199.804688 123.324219 199.917969 123.191406 C 202.257812 119.886719 204.09375 116.324219 205.425781 112.5 C 206.039062 110.929688 206.667969 109.339844 207.152344 107.671875 C 206.988281 107.894531 206.796875 108.128906 206.648438 108.363281 L 203.136719 113.777344 C 201.546875 116.304688 199.652344 118.585938 197.457031 120.613281 C 196.472656 121.492188 195.421875 122.28125 194.300781 122.980469 C 193.230469 123.667969 192.0625 124 190.789062 123.980469 C 190.132812 124 189.507812 123.867188 188.917969 123.574219 C 188.324219 123.285156 187.835938 122.871094 187.453125 122.339844 C 186.828125 121.507812 186.371094 120.597656 186.082031 119.597656 C 185.96875 119.191406 185.808594 118.804688 185.601562 118.4375 C 185.589844 118.96875 185.472656 119.496094 185.359375 120.019531 C 185.261719 120.523438 185.109375 121.011719 184.90625 121.480469 C 184.84375 121.808594 184.644531 122 184.316406 122.050781 C 183.984375 122.101562 183.738281 121.984375 183.578125 121.691406 C 183.25 121.347656 182.976562 120.96875 182.753906 120.550781 C 181.085938 117.613281 179.863281 114.503906 179.085938 111.21875 C 178.855469 110.25 178.664062 109.265625 178.445312 108.296875 C 178.402344 108.082031 178.304688 107.894531 178.152344 107.734375 C 178.148438 107.945312 178.144531 108.15625 178.074219 108.382812 C 177.726562 113.46875 178.253906 118.464844 179.65625 123.367188 C 179.847656 124.019531 179.980469 124.683594 180.050781 125.359375 C 180.117188 125.613281 180.128906 125.871094 180.082031 126.132812 C 180.035156 126.390625 179.9375 126.628906 179.785156 126.847656 C 179.636719 127.0625 179.445312 127.238281 179.21875 127.371094 C 178.992188 127.507812 178.746094 127.585938 178.484375 127.613281 C 177.714844 127.828125 176.933594 127.949219 176.136719 127.976562 C 169.152344 128.070312 162.832031 126.285156 157.765625 121.277344 C 157.492188 120.984375 157.183594 120.742188 156.839844 120.542969 C 156.867188 120.71875 156.917969 120.886719 156.988281 121.050781 C 159.898438 126.199219 163.949219 129.800781 170.011719 130.679688 C 172.003906 130.964844 173.945312 130.753906 175.828125 130.046875 C 177.160156 129.570312 178.363281 128.988281 179.644531 128.445312 C 180.070312 128.269531 180.511719 128.09375 180.976562 127.941406 C 181.222656 127.878906 181.46875 127.832031 181.71875 127.800781 C 181.820312 128.078125 181.921875 128.320312 181.996094 128.558594 C 183.226562 132.613281 184.148438 136.734375 184.753906 140.925781 C 185.433594 145.164062 185.863281 149.425781 186.039062 153.710938 C 186.300781 157.117188 185.933594 160.457031 184.933594 163.722656 C 184.683594 164.636719 184.523438 165.5625 184.453125 166.503906 C 184.003906 170.242188 183.796875 173.992188 183.835938 177.757812 C 183.886719 183.628906 184.347656 189.480469 184.796875 195.347656 C 185.183594 200.289062 185.570312 205.242188 185.519531 210.210938 C 185.570312 213.40625 185.175781 216.542969 184.335938 219.628906 C 184.050781 220.574219 183.726562 221.519531 183.363281 222.449219 C 183.320312 222.675781 183.21875 222.875 183.0625 223.042969 C 182.90625 223.214844 182.714844 223.328125 182.492188 223.390625 C 182.269531 223.453125 182.046875 223.449219 181.828125 223.386719 C 181.605469 223.320312 181.417969 223.199219 181.261719 223.027344 C 180.617188 222.511719 180.023438 221.945312 179.472656 221.324219 C 178.066406 219.78125 176.527344 218.382812 174.851562 217.132812 C 172.839844 215.644531 170.660156 214.460938 168.316406 213.585938 C 166.394531 212.910156 164.414062 212.5625 162.378906 212.535156 C 160.34375 212.507812 158.355469 212.808594 156.417969 213.433594 C 154.398438 214.066406 152.453125 214.878906 150.578125 215.863281 C 147.289062 217.515625 144.015625 219.152344 140.742188 220.816406 C 139.988281 221.199219 139.253906 221.625 138.550781 222.09375 C 138.320312 222.238281 138.125 222.414062 137.960938 222.628906 C 137.792969 222.839844 137.667969 223.070312 137.585938 223.328125 C 137.5 223.582031 137.460938 223.84375 137.464844 224.113281 C 137.472656 224.378906 137.523438 224.640625 137.617188 224.890625 C 137.898438 225.855469 138.300781 226.765625 138.816406 227.625 C 139.65625 229.015625 140.628906 230.300781 141.738281 231.488281 C 142.847656 232.671875 144.070312 233.726562 145.402344 234.652344 C 146.734375 235.578125 148.148438 236.355469 149.644531 236.984375 C 151.140625 237.609375 152.683594 238.074219 154.277344 238.378906 C 156.320312 238.714844 158.371094 238.753906 160.421875 238.488281 C 162.476562 238.226562 164.449219 237.671875 166.339844 236.828125 C 170.601562 234.960938 174.535156 232.558594 178.140625 229.613281 C 179.027344 228.945312 179.898438 228.234375 180.824219 227.632812 C 182.433594 226.570312 183.484375 226.882812 184.015625 228.730469 C 184.457031 230.253906 184.761719 231.800781 184.921875 233.378906 C 185.28125 236.652344 185.59375 239.921875 185.738281 243.203125 C 185.882812 246.488281 185.90625 249.910156 185.730469 253.253906 C 185.507812 257.53125 185.023438 261.792969 184.699219 266.070312 C 184.523438 268.261719 184.4375 270.46875 184.351562 272.675781 C 184.203125 275.949219 184.082031 279.234375 183.988281 282.53125 C 183.972656 283.375 184.085938 284.238281 184.148438 285.085938 C 184.15625 285.289062 184.152344 285.492188 184.136719 285.695312 C 184.097656 287.542969 183.933594 287.816406 182.363281 288.84375 C 180.648438 289.886719 178.820312 290.671875 176.882812 291.191406 C 173.207031 292.234375 169.480469 293.039062 165.699219 293.605469 C 160.339844 294.496094 154.957031 295.1875 149.550781 295.675781 C 145.671875 296.046875 141.765625 296.335938 137.871094 296.558594 C 133.621094 296.816406 129.375 297.019531 125.113281 297.128906 C 116.449219 297.375 107.792969 297.261719 99.125 296.964844 L 86.941406 296.488281 C 81.921875 296.277344 76.902344 296.054688 71.882812 295.820312 L 59.917969 295.230469 L 51.121094 294.769531 C 50.738281 294.761719 50.289062 294.753906 50.484375 294.097656 C 50.707031 294.085938 50.925781 294.089844 51.148438 294.109375 L 61.09375 294.621094 L 70.339844 295.0625 L 88.039062 295.835938 C 96.257812 296.21875 104.472656 296.546875 112.699219 296.570312 C 117.984375 296.585938 123.277344 296.535156 128.476562 296.378906 C 134.628906 296.1875 140.785156 295.800781 146.929688 295.253906 C 154.386719 294.585938 161.824219 293.683594 169.175781 292.3125 C 172.597656 291.726562 175.945312 290.851562 179.214844 289.691406 C 180.347656 289.265625 181.414062 288.710938 182.421875 288.039062 C 182.828125 287.785156 183.128906 287.4375 183.324219 286.996094 C 183.519531 286.558594 183.574219 286.101562 183.488281 285.628906 C 183.359375 284.34375 183.300781 283.054688 183.304688 281.761719 C 183.382812 277.917969 183.609375 274.074219 183.792969 270.230469 C 183.832031 268.417969 184 266.597656 184.144531 264.777344 C 184.4375 260.816406 184.78125 256.9375 185.046875 253.015625 C 185.292969 248.753906 185.210938 244.5 184.796875 240.25 C 184.570312 237.601562 184.375 235.03125 184.109375 232.433594 C 183.996094 231.539062 183.828125 230.65625 183.609375 229.78125 C 183.523438 229.378906 183.394531 228.992188 183.222656 228.621094 C 182.832031 227.78125 182.398438 227.613281 181.609375 228.097656 C 180.828125 228.5625 180.078125 229.074219 179.367188 229.640625 C 176.289062 232.09375 173.007812 234.226562 169.519531 236.046875 C 166.757812 237.542969 163.828125 238.535156 160.730469 239.027344 C 158.328125 239.402344 155.933594 239.363281 153.546875 238.902344 C 151.164062 238.441406 148.925781 237.589844 146.835938 236.347656 C 143.503906 234.410156 140.75 231.847656 138.570312 228.667969 C 137.824219 227.597656 137.28125 226.4375 136.9375 225.179688 C 136.828125 224.851562 136.773438 224.507812 136.777344 224.160156 C 136.777344 223.808594 136.835938 223.46875 136.949219 223.140625 C 137.0625 222.808594 137.222656 222.503906 137.4375 222.226562 C 137.648438 221.949219 137.902344 221.714844 138.191406 221.519531 C 138.617188 221.1875 139.0625 220.886719 139.53125 220.621094 C 143.671875 218.539062 147.816406 216.441406 151.96875 214.386719 C 154.429688 213.175781 157.019531 212.398438 159.738281 212.046875 C 161.601562 211.804688 163.457031 211.835938 165.3125 212.136719 C 167.164062 212.4375 168.933594 213 170.625 213.816406 C 173.808594 215.34375 176.628906 217.375 179.078125 219.914062 C 179.703125 220.550781 180.28125 221.261719 180.917969 221.832031 C 181.332031 222.199219 181.765625 222.542969 182.21875 222.863281 C 182.78125 222.058594 183.195312 221.1875 183.460938 220.246094 C 184.410156 217.128906 184.867188 213.941406 184.835938 210.6875 C 184.917969 206.722656 184.667969 202.75 184.367188 198.777344 C 184.066406 194.804688 183.703125 190.578125 183.484375 186.476562 C 183.289062 183.074219 183.1875 179.660156 183.167969 176.261719 C 183.117188 171.929688 183.503906 167.636719 184.332031 163.382812 C 184.550781 162.261719 184.917969 161.160156 185.113281 160.039062 C 185.4375 157.910156 185.507812 155.773438 185.324219 153.628906 C 185.183594 150.984375 185 148.335938 184.683594 145.683594 C 184.113281 140.238281 183.066406 134.882812 181.550781 129.621094 C 181.464844 129.339844 181.363281 129.074219 181.25 128.714844 C 180.8125 128.878906 180.4375 129.015625 180.078125 129.179688 C 179.050781 129.621094 178.0625 130.128906 177.023438 130.546875 C 176.039062 130.960938 175.019531 131.261719 173.964844 131.449219 C 172.910156 131.632812 171.847656 131.699219 170.78125 131.644531 C 169.710938 131.585938 168.664062 131.414062 167.636719 131.121094 C 166.605469 130.828125 165.625 130.421875 164.6875 129.90625 C 162.972656 129.003906 161.425781 127.867188 160.050781 126.503906 C 158.671875 125.140625 157.523438 123.605469 156.601562 121.898438 C 156.355469 121.429688 156.15625 120.941406 156.011719 120.433594 C 155.910156 120.128906 155.890625 119.71875 156.25 119.59375 C 156.539062 119.527344 156.808594 119.578125 157.054688 119.742188 C 157.375 119.949219 157.660156 120.199219 157.914062 120.484375 C 159.761719 122.371094 161.878906 123.886719 164.253906 125.035156 C 166.632812 126.183594 169.136719 126.894531 171.761719 127.171875 C 173.519531 127.429688 175.285156 127.464844 177.050781 127.28125 C 177.605469 127.21875 178.148438 127.109375 178.683594 126.945312 C 178.816406 126.917969 178.9375 126.867188 179.050781 126.792969 C 179.160156 126.71875 179.253906 126.628906 179.332031 126.515625 C 179.40625 126.40625 179.457031 126.285156 179.484375 126.152344 C 179.511719 126.019531 179.511719 125.890625 179.488281 125.757812 C 179.429688 125.175781 179.332031 124.601562 179.191406 124.03125 C 178.480469 121.453125 177.964844 118.832031 177.648438 116.171875 C 177.371094 113.210938 177.355469 110.25 177.609375 107.285156 C 177.636719 106.902344 177.71875 106.53125 177.855469 106.167969 C 177.914062 105.953125 178.050781 105.839844 178.269531 105.824219 C 178.492188 105.808594 178.644531 105.902344 178.730469 106.105469 C 178.863281 106.367188 178.960938 106.644531 179.015625 106.933594 C 179.34375 108.367188 179.617188 109.800781 179.972656 111.234375 C 180.726562 114.363281 181.890625 117.332031 183.464844 120.140625 C 183.683594 120.515625 183.9375 120.863281 184.207031 121.28125 C 184.539062 120.929688 184.699219 120.515625 184.695312 120.035156 C 184.804688 119.28125 184.859375 118.515625 184.953125 117.765625 C 184.992188 117.445312 185.066406 117.132812 185.1875 116.832031 C 185.246094 116.652344 185.371094 116.554688 185.558594 116.542969 C 185.75 116.53125 185.882812 116.609375 185.96875 116.78125 C 186.117188 117.03125 186.230469 117.300781 186.308594 117.582031 C 186.492188 118.234375 186.625 118.910156 186.847656 119.535156 C 187.097656 120.226562 187.398438 120.886719 187.757812 121.523438 C 187.953125 121.886719 188.199219 122.207031 188.503906 122.484375 C 188.804688 122.761719 189.148438 122.980469 189.527344 123.140625 C 189.90625 123.296875 190.300781 123.386719 190.710938 123.410156 C 191.121094 123.429688 191.523438 123.382812 191.914062 123.261719 C 193.339844 122.925781 194.609375 122.28125 195.722656 121.332031 C 197.699219 119.707031 199.421875 117.847656 200.890625 115.753906 C 202.414062 113.601562 203.835938 111.359375 205.296875 109.167969 C 206.03125 108.058594 206.742188 106.949219 207.480469 105.855469 C 207.710938 105.527344 207.933594 105.042969 208.429688 105.304688 C 208.925781 105.566406 208.667969 106.011719 208.566406 106.351562 C 208.367188 107.0625 208.113281 107.757812 207.847656 108.441406 C 206.453125 112.085938 205.054688 115.800781 203.261719 119.304688 C 203.253906 119.390625 203.25 119.472656 203.257812 119.558594 C 203.257812 119.558594 203.402344 119.558594 203.414062 119.558594 C 205.566406 116.800781 207.160156 113.75 208.191406 110.402344 C 209 107.957031 209.21875 105.457031 208.847656 102.90625 C 208.523438 100.695312 208.546875 98.492188 208.914062 96.289062 C 209.28125 94.085938 209.980469 91.992188 211.007812 90.007812 C 211.765625 88.382812 212.683594 86.84375 213.535156 85.261719 C 214.046875 84.304688 214.59375 83.363281 215.0625 82.382812 C 215.285156 81.933594 215.429688 81.460938 215.488281 80.964844 C 215.523438 80.847656 215.527344 80.726562 215.503906 80.609375 C 215.476562 80.488281 215.425781 80.382812 215.347656 80.285156 C 215.273438 80.191406 215.179688 80.121094 215.066406 80.070312 C 214.953125 80.023438 214.839844 80 214.714844 80.007812 C 214.21875 79.953125 213.730469 79.992188 213.246094 80.125 C 212.355469 80.425781 211.488281 80.78125 210.644531 81.195312 C 209.828125 81.570312 209.035156 81.996094 208.265625 82.46875 C 205.949219 83.910156 203.542969 85.183594 201.046875 86.285156 C 199.289062 87.035156 197.710938 88.066406 196.320312 89.378906 C 194.929688 90.691406 193.808594 92.207031 192.957031 93.917969 C 191.394531 96.757812 190.148438 99.730469 189.214844 102.832031 C 188.214844 106.589844 188.265625 110.332031 189.367188 114.0625 C 189.847656 115.816406 190.488281 117.523438 191.046875 119.253906 C 191.207031 119.683594 191.332031 120.128906 191.414062 120.582031 C 191.421875 120.816406 191.328125 121.003906 191.140625 121.144531 C 190.9375 121.207031 190.757812 121.167969 190.597656 121.027344 C 190.304688 120.78125 190.050781 120.5 189.835938 120.179688 C 187.664062 117.039062 186.414062 113.566406 186.085938 109.761719 C 185.929688 105.957031 186.574219 102.289062 188.019531 98.761719 C 188.6875 96.976562 189.492188 95.234375 190.1875 93.519531 C 190.535156 92.652344 190.808594 91.746094 191.101562 90.890625 C 191.167969 90.664062 191.210938 90.429688 191.234375 90.195312 C 191.285156 90.007812 191.3125 89.816406 191.316406 89.621094 C 191.324219 89.429688 191.304688 89.238281 191.269531 89.046875 C 191.230469 88.855469 191.171875 88.671875 191.09375 88.496094 C 191.011719 88.320312 190.914062 88.152344 190.796875 88 C 190.679688 87.84375 190.546875 87.707031 190.398438 87.582031 C 190.25 87.457031 190.089844 87.351562 189.917969 87.261719 C 189.742188 87.175781 189.5625 87.105469 189.375 87.058594 C 189.1875 87.011719 188.996094 86.988281 188.800781 86.984375 C 187.578125 86.832031 186.351562 86.769531 185.117188 86.800781 C 183.265625 86.84375 181.425781 87.015625 179.570312 87.097656 C 176.320312 87.246094 173.277344 86.523438 170.441406 84.925781 C 169.800781 84.570312 169.132812 84.238281 168.519531 83.855469 C 167.410156 83.152344 166.203125 82.886719 164.898438 83.054688 C 163.042969 83.28125 161.152344 83.347656 159.28125 83.53125 C 158.046875 83.65625 156.867188 83.988281 155.746094 84.53125 C 155.246094 84.785156 154.773438 85.078125 154.324219 85.414062 C 153.949219 85.695312 153.679688 86.058594 153.519531 86.503906 C 153.359375 86.945312 153.332031 87.394531 153.441406 87.855469 C 153.5625 88.488281 153.753906 89.101562 154.011719 89.691406 C 156.667969 95.550781 158.871094 101.597656 161.285156 107.558594 C 162.65625 111.15625 164.351562 114.601562 166.363281 117.882812 C 167.433594 119.652344 168.6875 121.277344 170.121094 122.761719 C 170.996094 123.695312 172.007812 124.4375 173.15625 124.992188 C 174.121094 125.484375 175.144531 125.683594 176.226562 125.585938 C 176.667969 125.554688 177.109375 125.5625 177.546875 125.613281 C 177.742188 125.664062 177.871094 125.785156 177.9375 125.976562 C 177.933594 126.109375 177.746094 126.289062 177.597656 126.378906 C 177.457031 126.4375 177.3125 126.460938 177.160156 126.449219 C 175.816406 126.566406 174.492188 126.445312 173.191406 126.085938 C 171.890625 125.726562 170.695312 125.152344 169.601562 124.363281 C 166.1875 121.894531 163.574219 118.753906 161.769531 114.945312 C 160.757812 112.625 160.015625 110.242188 158.992188 107.949219 C 158.273438 106.242188 157.566406 104.519531 156.78125 102.851562 C 156.285156 101.820312 155.621094 100.910156 154.785156 100.125 C 153.953125 99.339844 153.003906 98.730469 151.945312 98.296875 C 150.882812 97.824219 149.765625 97.445312 148.679688 97.011719 C 148.082031 96.761719 147.46875 96.566406 146.839844 96.417969 L 148.058594 97.515625 L 150.96875 100.101562 C 152.863281 101.820312 154.332031 103.847656 155.378906 106.179688 C 156.675781 109.113281 158.15625 111.949219 159.816406 114.695312 C 161.515625 117.503906 163.566406 120.027344 165.96875 122.265625 C 166.296875 122.558594 166.597656 122.878906 166.875 123.222656 C 166.960938 123.425781 167.007812 123.636719 167.007812 123.859375 C 166.773438 123.933594 166.535156 123.964844 166.289062 123.953125 C 165.964844 123.816406 165.660156 123.644531 165.375 123.441406 C 162.441406 121.53125 159.90625 119.1875 157.773438 116.410156 C 155.71875 113.785156 153.957031 110.976562 152.484375 107.984375 C 151.9375 106.917969 151.378906 105.847656 150.804688 104.789062 C 149.902344 103.203125 148.839844 101.730469 147.617188 100.375 C 146.480469 99.027344 145.304688 97.773438 144.195312 96.457031 C 143.671875 95.855469 143.214844 95.214844 142.820312 94.523438 C 142.710938 94.359375 142.621094 94.179688 142.550781 93.996094 C 142.480469 93.808594 142.433594 93.613281 142.40625 93.417969 C 142.378906 93.21875 142.375 93.019531 142.394531 92.824219 C 142.410156 92.625 142.453125 92.429688 142.515625 92.238281 C 142.578125 92.050781 142.660156 91.871094 142.761719 91.699219 C 142.867188 91.527344 142.988281 91.371094 143.125 91.230469 C 143.265625 91.085938 143.417969 90.960938 143.585938 90.851562 C 143.753906 90.742188 143.929688 90.652344 144.117188 90.585938 C 145.382812 90.003906 146.710938 89.742188 148.101562 89.792969 C 149.183594 89.816406 150.265625 89.984375 151.347656 90.097656 C 151.636719 90.105469 151.914062 90.109375 152.335938 90.226562 C 152.195312 89.917969 152.121094 89.703125 152.019531 89.519531 C 151.652344 88.78125 151.203125 88.085938 150.902344 87.328125 C 150.789062 87.128906 150.699219 86.921875 150.636719 86.703125 C 150.570312 86.484375 150.53125 86.265625 150.515625 86.039062 C 150.5 85.8125 150.511719 85.585938 150.546875 85.359375 C 150.582031 85.136719 150.644531 84.917969 150.726562 84.707031 C 150.8125 84.5 150.921875 84.300781 151.050781 84.113281 C 151.179688 83.925781 151.328125 83.757812 151.496094 83.605469 C 151.664062 83.453125 151.847656 83.320312 152.046875 83.210938 C 152.246094 83.097656 152.453125 83.011719 152.671875 82.945312 C 152.882812 82.859375 153.097656 82.757812 153.324219 82.683594 C 156.210938 81.855469 159.058594 81.015625 161.957031 80.269531 C 163.300781 79.910156 164.667969 79.789062 166.054688 79.90625 C 167.441406 80.027344 168.769531 80.378906 170.03125 80.964844 C 172.460938 82.128906 175 82.933594 177.652344 83.382812 C 179.46875 83.65625 181.316406 83.816406 183.164062 84.011719 C 185.011719 84.207031 186.726562 84.351562 188.441406 84.597656 C 189.253906 84.734375 190.039062 84.972656 190.792969 85.304688 C 191.789062 85.722656 192.097656 86.140625 193.0625 87.535156 C 193.175781 87.359375 193.269531 87.171875 193.339844 86.976562 C 193.40625 86.777344 193.453125 86.574219 193.476562 86.367188 C 193.496094 86.160156 193.496094 85.953125 193.464844 85.746094 C 193.4375 85.539062 193.386719 85.335938 193.3125 85.140625 C 193.238281 84.945312 193.140625 84.761719 193.019531 84.589844 C 192.902344 84.417969 192.765625 84.261719 192.609375 84.121094 C 192.453125 83.984375 192.28125 83.863281 192.097656 83.765625 C 191.914062 83.664062 191.71875 83.589844 191.519531 83.535156 C 190.824219 83.398438 190.125 83.324219 189.421875 83.308594 C 188.839844 83.296875 188.246094 83.285156 187.664062 83.273438 C 187.4375 83.265625 187.246094 83.023438 187.050781 82.902344 C 187.210938 82.71875 187.335938 82.433594 187.535156 82.371094 C 188.210938 82.121094 188.898438 81.917969 189.597656 81.765625 C 193.578125 81.027344 197.5625 80.300781 201.648438 79.605469 C 202.523438 79.53125 203.402344 79.511719 204.28125 79.542969 C 203.714844 79.257812 203.113281 79.097656 202.480469 79.070312 C 199.878906 78.832031 197.3125 79.035156 194.785156 79.675781 C 193.457031 79.980469 192.023438 80.214844 190.628906 80.410156 C 189.125 80.453125 187.640625 80.277344 186.1875 79.882812 C 184.53125 79.570312 182.882812 79.609375 181.246094 79.992188 C 179.605469 80.371094 178.113281 81.070312 176.765625 82.082031 C 176.570312 82.261719 176.351562 82.402344 176.109375 82.503906 C 175.863281 82.597656 175.621094 82.59375 175.382812 82.488281 C 175.148438 82.289062 175.070312 82.042969 175.148438 81.746094 C 175.328125 81.3125 175.570312 80.917969 175.871094 80.554688 C 176.753906 79.621094 177.789062 78.914062 178.984375 78.4375 C 181.617188 77.335938 184.351562 76.996094 187.175781 77.417969 C 188.164062 77.542969 189.152344 77.710938 190.140625 77.863281 C 191.644531 78.042969 193.132812 77.949219 194.601562 77.585938 C 196.089844 77.285156 197.589844 77.011719 199.101562 76.804688 C 200.699219 76.59375 202.269531 76.722656 203.8125 77.191406 C 204.640625 77.371094 205.359375 77.753906 205.96875 78.339844 C 206.578125 78.925781 206.988281 79.628906 207.195312 80.449219 C 207.253906 80.621094 207.320312 80.789062 207.398438 80.957031 L 208.277344 80.617188 C 209.757812 80.023438 211.210938 79.355469 212.703125 78.871094 C 213.457031 78.609375 214.230469 78.472656 215.027344 78.453125 C 215.195312 78.429688 215.367188 78.425781 215.535156 78.441406 C 215.707031 78.460938 215.875 78.496094 216.035156 78.554688 C 216.199219 78.613281 216.351562 78.6875 216.492188 78.78125 C 216.636719 78.875 216.765625 78.988281 216.882812 79.113281 C 217 79.238281 217.097656 79.375 217.183594 79.527344 C 217.265625 79.675781 217.328125 79.835938 217.375 80 C 217.417969 80.167969 217.441406 80.335938 217.445312 80.507812 C 217.449219 80.679688 217.429688 80.847656 217.394531 81.015625 C 217.273438 82.039062 217.023438 83.03125 216.644531 83.988281 C 215.863281 85.890625 214.964844 87.734375 214.09375 89.59375 C 213.390625 91.113281 212.578125 92.578125 211.898438 94.109375 C 211.039062 96.078125 210.613281 98.136719 210.621094 100.285156 C 210.566406 103.035156 210.667969 105.800781 210.597656 108.5625 C 210.59375 110.878906 210.171875 113.117188 209.335938 115.28125 C 208.492188 117.351562 207.199219 119.085938 205.457031 120.488281 C 204.113281 121.609375 204.113281 121.625 205.113281 123.125 C 205.730469 124.023438 206.398438 124.910156 206.949219 125.808594 C 207.351562 126.375 207.574219 127.003906 207.609375 127.699219 C 207.652344 127.886719 207.644531 128.070312 207.589844 128.253906 C 207.53125 128.433594 207.4375 128.589844 207.296875 128.722656 C 207.160156 128.855469 207 128.945312 206.816406 128.992188 C 206.628906 129.042969 206.445312 129.042969 206.261719 128.992188 C 205.878906 128.953125 205.503906 128.867188 205.144531 128.734375 C 203.988281 128.3125 202.820312 127.890625 201.695312 127.339844 C 200.796875 126.941406 199.859375 126.730469 198.878906 126.710938 C 197.898438 126.691406 196.949219 126.863281 196.039062 127.222656 C 195.042969 127.574219 194.027344 127.855469 192.992188 128.058594 C 192.441406 128.203125 191.890625 128.21875 191.332031 128.105469 C 190.773438 127.988281 190.269531 127.757812 189.820312 127.410156 C 189.542969 127.226562 189.242188 127.152344 188.910156 127.195312 C 187.441406 127.402344 185.96875 127.664062 184.492188 127.9375 C 184.210938 128.027344 183.945312 128.148438 183.691406 128.304688 C 184.035156 128.398438 184.382812 128.476562 184.734375 128.535156 C 185.933594 128.691406 187.121094 128.851562 188.320312 128.96875 C 190.878906 129.207031 191.839844 130.164062 191.800781 132.742188 C 191.753906 134.949219 191.589844 137.140625 191.425781 139.34375 C 191.261719 141.550781 191.035156 144.082031 190.816406 146.445312 C 190.285156 151.863281 189.375 157.214844 188.089844 162.507812 C 187.398438 165.367188 186.746094 168.226562 186.140625 171.085938 C 185.714844 173.003906 185.640625 174.929688 185.917969 176.875 C 185.949219 177.03125 185.996094 177.1875 186.054688 177.339844 L 186.238281 177.34375 C 186.441406 176.449219 186.671875 175.554688 186.847656 174.710938 C 187.4375 171.28125 188.386719 167.957031 189.699219 164.734375 C 191.847656 159.9375 194.683594 155.589844 198.203125 151.6875 C 199.871094 149.695312 201.757812 147.941406 203.867188 146.421875 C 204.320312 146.09375 204.800781 145.800781 205.300781 145.539062 C 206.394531 144.996094 207.023438 145.273438 207.304688 146.46875 C 207.582031 147.664062 207.699219 148.484375 207.941406 149.496094 C 208.941406 153.628906 209.886719 157.773438 210.472656 162.003906 C 211.066406 165.878906 211.242188 169.773438 211 173.6875 C 210.882812 176.3125 210.371094 178.855469 209.464844 181.320312 C 208.554688 183.785156 207.292969 186.054688 205.675781 188.125 C 203.765625 190.425781 201.5625 192.398438 199.0625 194.042969 C 196.597656 195.671875 194.582031 197.738281 193.011719 200.238281 C 191.851562 202.214844 191.113281 204.335938 190.792969 206.605469 C 190.015625 210.882812 189.488281 215.191406 189.203125 219.53125 C 188.832031 226.027344 188.734375 232.515625 188.800781 239.011719 C 188.832031 241.945312 188.839844 244.882812 188.882812 247.816406 C 188.9375 251.519531 189.019531 255.226562 189.078125 258.914062 C 189.125 261.824219 189.128906 264.734375 189.175781 267.644531 C 189.230469 271.464844 189.308594 275.289062 189.375 279.097656 C 189.417969 281.453125 189.542969 283.796875 189.496094 286.148438 C 189.453125 286.695312 189.5625 287.207031 189.820312 287.691406 C 190.078125 288.171875 190.445312 288.550781 190.921875 288.820312 C 192.28125 289.722656 193.761719 290.332031 195.363281 290.644531 C 198.300781 291.289062 201.222656 291.917969 204.171875 292.414062 C 208.230469 293.078125 212.296875 293.679688 216.367188 294.210938 C 219.835938 294.667969 223.304688 295.015625 226.789062 295.351562 C 230.273438 295.6875 233.742188 295.984375 237.230469 296.242188 C 239.550781 296.421875 241.863281 296.5625 244.175781 296.664062 C 250.898438 296.949219 257.621094 297.257812 264.347656 297.4375 C 271.566406 297.585938 278.792969 297.734375 286.023438 297.882812 C 293.714844 298.042969 301.410156 298.054688 309.105469 298.136719 C 310.980469 298.171875 312.859375 298.121094 314.738281 298.117188 Z M 169.269531 123.046875 C 167.636719 121.035156 166.175781 118.90625 164.878906 116.664062 C 163.03125 113.355469 161.4375 109.925781 160.09375 106.382812 C 157.90625 100.90625 155.878906 95.363281 153.398438 89.996094 C 153.210938 89.5625 153.054688 89.121094 152.9375 88.664062 C 152.765625 88.25 152.683594 87.816406 152.679688 87.371094 C 152.675781 86.921875 152.757812 86.488281 152.925781 86.070312 C 153.089844 85.65625 153.324219 85.285156 153.632812 84.960938 C 153.941406 84.632812 154.300781 84.378906 154.707031 84.191406 C 156.070312 83.390625 157.539062 82.914062 159.113281 82.761719 C 161.300781 82.515625 163.5 82.375 165.734375 82.210938 C 166.703125 82.160156 167.605469 82.378906 168.445312 82.863281 C 169.441406 83.410156 170.433594 83.988281 171.453125 84.511719 C 174.183594 85.910156 177.082031 86.5 180.144531 86.277344 C 182.25 86.148438 184.367188 86.007812 186.484375 85.996094 C 187.628906 85.988281 188.753906 86.128906 189.859375 86.425781 C 190.179688 86.5 190.476562 86.625 190.753906 86.800781 C 191.03125 86.980469 191.269531 87.199219 191.46875 87.460938 C 191.667969 87.722656 191.816406 88.011719 191.917969 88.324219 C 192.015625 88.636719 192.058594 88.957031 192.046875 89.285156 C 192.042969 89.5625 192.035156 89.828125 192.03125 90.117188 L 192.175781 90.121094 C 192.21875 90.082031 192.253906 90.039062 192.285156 89.992188 C 192.519531 89.519531 192.605469 89.019531 192.542969 88.492188 C 192.480469 87.96875 192.277344 87.503906 191.933594 87.101562 C 191.28125 86.210938 190.410156 85.679688 189.324219 85.5 C 187.835938 85.21875 186.316406 85.042969 184.800781 84.878906 C 182.386719 84.589844 179.945312 84.433594 177.53125 84.09375 C 174.835938 83.59375 172.238281 82.777344 169.742188 81.644531 C 168.921875 81.316406 168.085938 81.039062 167.234375 80.8125 C 165.503906 80.425781 163.785156 80.484375 162.085938 80.984375 C 159.242188 81.71875 156.433594 82.546875 153.613281 83.363281 C 153.195312 83.488281 152.796875 83.671875 152.425781 83.90625 C 152.203125 84.015625 152.007812 84.160156 151.839844 84.34375 C 151.671875 84.523438 151.539062 84.730469 151.445312 84.960938 C 151.355469 85.191406 151.304688 85.429688 151.300781 85.675781 C 151.296875 85.925781 151.339844 86.164062 151.421875 86.398438 C 151.691406 87.140625 152.011719 87.863281 152.382812 88.558594 C 152.574219 88.960938 152.84375 89.308594 153.046875 89.699219 C 153.390625 90.351562 153.15625 90.796875 152.429688 90.863281 C 152.019531 90.886719 151.609375 90.878906 151.199219 90.835938 C 150.144531 90.734375 149.101562 90.554688 148.046875 90.546875 C 146.761719 90.496094 145.539062 90.75 144.378906 91.304688 C 144.230469 91.359375 144.089844 91.433594 143.960938 91.523438 C 143.828125 91.613281 143.710938 91.71875 143.605469 91.839844 C 143.503906 91.957031 143.414062 92.089844 143.339844 92.230469 C 143.269531 92.371094 143.214844 92.519531 143.179688 92.675781 C 143.140625 92.832031 143.125 92.988281 143.128906 93.144531 C 143.132812 93.304688 143.152344 93.460938 143.195312 93.617188 C 143.238281 93.769531 143.296875 93.914062 143.375 94.054688 C 143.453125 94.191406 143.546875 94.320312 143.65625 94.4375 C 143.894531 93.6875 144.066406 93.609375 144.71875 94.035156 C 144.851562 94.109375 144.972656 94.195312 145.085938 94.292969 C 146.433594 95.304688 147.90625 96.070312 149.507812 96.59375 C 150.453125 96.914062 151.378906 97.28125 152.289062 97.695312 C 154.339844 98.550781 155.921875 99.941406 157.039062 101.863281 C 157.648438 102.941406 158.191406 104.050781 158.664062 105.191406 C 159.609375 107.496094 160.472656 109.828125 161.375 112.160156 C 162.792969 115.859375 164.929688 119.078125 167.789062 121.8125 C 168.296875 122.207031 168.789062 122.613281 169.269531 123.046875 Z M 205.605469 83.257812 L 205.609375 83.058594 C 205.09375 83.050781 204.984375 82.664062 204.964844 82.253906 C 204.945312 81.84375 204.976562 81.726562 204.902344 81.457031 C 204.746094 80.621094 204.460938 80.339844 203.605469 80.308594 C 202.988281 80.269531 202.375 80.292969 201.765625 80.375 C 198.433594 80.941406 195.128906 81.5625 191.785156 82.113281 C 191.160156 82.234375 190.550781 82.378906 189.925781 82.511719 C 190.203125 82.636719 190.492188 82.703125 190.796875 82.703125 C 191.039062 82.695312 191.28125 82.710938 191.523438 82.757812 C 191.765625 82.804688 191.996094 82.878906 192.222656 82.976562 C 192.445312 83.074219 192.65625 83.199219 192.851562 83.34375 C 193.050781 83.488281 193.226562 83.65625 193.386719 83.839844 C 193.546875 84.027344 193.683594 84.230469 193.796875 84.445312 C 193.910156 84.664062 194 84.890625 194.0625 85.128906 C 194.125 85.363281 194.160156 85.605469 194.167969 85.851562 C 194.179688 86.09375 194.160156 86.335938 194.113281 86.578125 C 193.898438 88.230469 193.347656 89.761719 192.457031 91.171875 C 192.390625 91.300781 192.28125 91.484375 192.171875 91.496094 C 191.59375 91.484375 191.542969 92 191.386719 92.40625 C 191.109375 93.140625 190.800781 93.875 190.507812 94.609375 C 189.65625 96.800781 188.742188 98.960938 187.96875 101.167969 C 187.109375 103.601562 186.6875 106.109375 186.703125 108.691406 C 186.796875 112.386719 187.8125 115.808594 189.742188 118.960938 C 189.824219 119.078125 189.914062 119.1875 190.015625 119.285156 C 190.007812 118.980469 189.949219 118.6875 189.832031 118.40625 C 189.398438 117.078125 188.910156 115.746094 188.597656 114.285156 C 187.636719 110.949219 187.480469 107.578125 188.132812 104.171875 C 189.1875 99.542969 191.039062 95.257812 193.683594 91.316406 C 194.945312 89.375 196.59375 87.859375 198.632812 86.765625 C 199.863281 86.074219 201.15625 85.492188 202.410156 84.871094 Z M 144.027344 94.867188 L 143.933594 94.945312 C 144.128906 95.199219 144.292969 95.453125 144.5 95.695312 C 145.210938 96.515625 145.910156 97.351562 146.644531 98.148438 C 149.351562 101.007812 151.542969 104.222656 153.214844 107.789062 C 154.445312 110.339844 155.910156 112.746094 157.617188 115.007812 C 159.269531 117.269531 161.179688 119.292969 163.347656 121.074219 C 163.515625 121.203125 163.695312 121.316406 163.882812 121.414062 C 161.480469 118.71875 159.433594 115.769531 157.746094 112.574219 C 156.699219 110.636719 155.738281 108.660156 154.8125 106.660156 C 153.703125 104.21875 152.148438 102.113281 150.144531 100.335938 C 148.09375 98.519531 146.066406 96.734375 144.027344 94.867188 Z M 208.042969 81.707031 C 206.855469 81.605469 206.789062 81.589844 206.507812 80.605469 C 206.335938 79.972656 206.019531 79.417969 205.558594 78.949219 C 205.09375 78.480469 204.546875 78.15625 203.917969 77.972656 C 202.507812 77.484375 201.058594 77.324219 199.574219 77.488281 C 197.984375 77.695312 196.394531 77.976562 194.8125 78.300781 C 193.015625 78.710938 191.207031 78.765625 189.386719 78.46875 C 187.25 78.007812 185.09375 77.890625 182.917969 78.125 C 180.824219 78.355469 178.933594 79.097656 177.238281 80.347656 C 176.914062 80.613281 176.601562 80.898438 176.308594 81.199219 C 176.496094 81.25 176.667969 81.21875 176.824219 81.105469 C 177.414062 80.773438 177.992188 80.414062 178.605469 80.125 C 179.996094 79.496094 181.449219 79.121094 182.972656 78.992188 C 184.492188 78.863281 185.988281 78.992188 187.464844 79.378906 C 188.730469 79.71875 190.011719 79.800781 191.308594 79.617188 C 192.171875 79.464844 193.03125 79.324219 193.960938 79.132812 C 196.363281 78.503906 198.800781 78.203125 201.28125 78.222656 C 202.496094 78.242188 203.671875 78.464844 204.808594 78.890625 C 205.257812 79.03125 205.628906 79.285156 205.925781 79.652344 C 206.21875 80.019531 206.382812 80.4375 206.421875 80.910156 C 206.425781 81.550781 206.386719 82.1875 206.300781 82.824219 Z M 202.21875 121.253906 C 201.5 122.15625 200.832031 123.097656 200.214844 124.070312 L 204.15625 125.246094 C 203.070312 124.128906 201.582031 123.265625 202.214844 121.269531 Z M 202.21875 121.253906 " fill-opacity="1" fill-rule="nonzero"/></g></g></g><g fill="#e1c340" fill-opacity="1"><g transform="translate(201.757799, 254.996234)"><g><path d="M -18.390625 16.3125 C -18.390625 10.21875 -19.003906 6.128906 -20.234375 4.046875 C -21.472656 1.960938 -23.328125 0.960938 -25.796875 1.046875 L -25.796875 0 L 0 0 L 0 1.046875 C -2.46875 0.960938 -4.316406 1.960938 -5.546875 4.046875 C -6.785156 6.128906 -7.40625 10.21875 -7.40625 16.3125 L -7.40625 62.6875 C -7.40625 68.851562 -6.785156 72.992188 -5.546875 75.109375 C -4.316406 77.234375 -2.46875 78.21875 0 78.0625 L 0 79.109375 L -59.5625 79.109375 L -64.421875 61.640625 L -63.375 61.640625 C -62.21875 64.648438 -60.328125 67.3125 -57.703125 69.625 C -55.085938 71.9375 -52.179688 73.75 -48.984375 75.0625 C -45.785156 76.375 -42.601562 77.03125 -39.4375 77.03125 L -18.390625 77.03125 L -18.390625 36.890625 C -20.390625 41.285156 -23.046875 44.003906 -26.359375 45.046875 C -29.679688 46.085938 -33.65625 45.835938 -38.28125 44.296875 C -40.207031 43.679688 -42.15625 43.046875 -44.125 42.390625 C -46.09375 41.734375 -47.984375 41.578125 -49.796875 41.921875 C -51.609375 42.273438 -53.242188 43.566406 -54.703125 45.796875 L -55.625 45.34375 C -53.695312 39.632812 -50.976562 36.023438 -47.46875 34.515625 C -43.96875 33.015625 -39.671875 33.113281 -34.578125 34.8125 C -32.734375 35.425781 -30.828125 36.039062 -28.859375 36.65625 C -26.890625 37.28125 -25.019531 37.457031 -23.25 37.1875 C -21.476562 36.914062 -19.859375 35.738281 -18.390625 33.65625 Z M -18.390625 16.3125 "/></g></g></g><g fill="#e1c340" fill-opacity="1"><g transform="translate(175.517043, 335.130564)"><g><path d="M 18.390625 -16.3125 C 18.390625 -10.21875 19.003906 -6.128906 20.234375 -4.046875 C 21.472656 -1.960938 23.328125 -0.960938 25.796875 -1.046875 L 25.796875 0 L 0 0 L 0 -1.046875 C 2.46875 -0.960938 4.316406 -1.960938 5.546875 -4.046875 C 6.785156 -6.128906 7.40625 -10.21875 7.40625 -16.3125 L 7.40625 -62.6875 C 7.40625 -68.851562 6.785156 -72.992188 5.546875 -75.109375 C 4.316406 -77.234375 2.46875 -78.21875 0 -78.0625 L 0 -79.109375 L 43.140625 -79.109375 C 46.296875 -79.109375 49.453125 -78.664062 52.609375 -77.78125 C 55.773438 -76.894531 58.4375 -75.367188 60.59375 -73.203125 C 62.757812 -71.046875 63.84375 -68.082031 63.84375 -64.3125 C 63.84375 -60.53125 62.742188 -57.441406 60.546875 -55.046875 C 58.347656 -52.660156 55.53125 -50.695312 52.09375 -49.15625 C 48.664062 -47.613281 45.140625 -46.1875 41.515625 -44.875 C 44.835938 -44.5625 47.460938 -43.59375 49.390625 -41.96875 C 51.316406 -40.351562 52.703125 -38.273438 53.546875 -35.734375 C 54.085938 -34.117188 54.78125 -31.941406 55.625 -29.203125 C 56.476562 -26.460938 57.40625 -23.585938 58.40625 -20.578125 C 59.40625 -17.578125 60.441406 -14.820312 61.515625 -12.3125 C 62.597656 -9.8125 63.644531 -7.984375 64.65625 -6.828125 C 65.5 -5.898438 66.519531 -5.1875 67.71875 -4.6875 C 68.914062 -4.1875 70.09375 -4.4375 71.25 -5.4375 L 72.046875 -4.734375 C 71.273438 -3.046875 70.117188 -1.832031 68.578125 -1.09375 C 67.035156 -0.363281 65.414062 0 63.71875 0 C 60.875 0 58.5625 -0.671875 56.78125 -2.015625 C 55.007812 -3.367188 53.585938 -5.085938 52.515625 -7.171875 C 51.117188 -9.710938 49.898438 -12.5625 48.859375 -15.71875 C 47.816406 -18.882812 46.875 -22.046875 46.03125 -25.203125 C 45.1875 -28.367188 44.257812 -31.265625 43.25 -33.890625 C 42.019531 -37.359375 40.398438 -39.75 38.390625 -41.0625 C 36.390625 -42.375 33.617188 -42.179688 30.078125 -40.484375 C 27.910156 -39.472656 25.726562 -38.082031 23.53125 -36.3125 C 21.332031 -34.539062 19.617188 -32.960938 18.390625 -31.578125 Z M 18.390625 -77.03125 L 18.390625 -34.578125 C 19.929688 -36.117188 21.609375 -37.546875 23.421875 -38.859375 C 25.234375 -40.171875 27.140625 -41.441406 29.140625 -42.671875 C 30.992188 -43.910156 33.25 -45.28125 35.90625 -46.78125 C 38.570312 -48.28125 41.195312 -49.914062 43.78125 -51.6875 C 46.363281 -53.46875 48.5 -55.4375 50.1875 -57.59375 C 51.882812 -59.75 52.734375 -62.140625 52.734375 -64.765625 C 52.816406 -68.234375 51.894531 -70.832031 49.96875 -72.5625 C 48.039062 -74.300781 45.648438 -75.476562 42.796875 -76.09375 C 39.941406 -76.71875 37.164062 -77.03125 34.46875 -77.03125 Z M 18.390625 -77.03125 "/></g></g></g><g mask="url(#8800d497c6)"><g transform="matrix(1, 0, 0, 1, 175, 90)"><g clip-path="url(#c8d23485c8)"><g clip-path="url(#a62f0a67c3)"><g fill="#e1c340" fill-opacity="1"><g transform="translate(1.244348, 7.39233)"><g><path d="M 1.359375 -0.125 C 1.179688 -0.101562 0.976562 -0.0976562 0.75 -0.109375 C 0.726562 -0.460938 0.679688 -0.972656 0.609375 -1.640625 C 0.546875 -2.304688 0.476562 -2.898438 0.40625 -3.421875 C 0.238281 -4.617188 0.078125 -5.347656 -0.078125 -5.609375 C 0.117188 -5.722656 0.398438 -5.832031 0.765625 -5.9375 C 1.128906 -6.039062 1.492188 -6.117188 1.859375 -6.171875 C 2.597656 -6.273438 3.1875 -6.1875 3.625 -5.90625 C 4.0625 -5.625 4.320312 -5.179688 4.40625 -4.578125 C 4.457031 -4.203125 4.40625 -3.851562 4.25 -3.53125 C 4.09375 -3.21875 3.851562 -2.957031 3.53125 -2.75 C 4.238281 -1.738281 4.773438 -1.117188 5.140625 -0.890625 C 4.960938 -0.765625 4.769531 -0.671875 4.5625 -0.609375 C 4.363281 -0.554688 4.144531 -0.515625 3.90625 -0.484375 C 3.6875 -0.847656 3.242188 -1.472656 2.578125 -2.359375 C 2.554688 -2.359375 2.492188 -2.351562 2.390625 -2.34375 C 2.242188 -2.320312 2.082031 -2.304688 1.90625 -2.296875 C 1.738281 -2.285156 1.601562 -2.285156 1.5 -2.296875 C 1.65625 -1.253906 1.8125 -0.578125 1.96875 -0.265625 C 1.78125 -0.203125 1.578125 -0.15625 1.359375 -0.125 Z M 2.625 -2.921875 C 2.882812 -3.078125 3.085938 -3.28125 3.234375 -3.53125 C 3.378906 -3.789062 3.429688 -4.0625 3.390625 -4.34375 C 3.273438 -5.207031 2.722656 -5.570312 1.734375 -5.4375 C 1.535156 -5.40625 1.34375 -5.351562 1.15625 -5.28125 C 1.207031 -4.726562 1.285156 -3.976562 1.390625 -3.03125 C 1.929688 -2.925781 2.34375 -2.890625 2.625 -2.921875 Z M 2.625 -2.921875 "/></g></g></g></g><g clip-path="url(#1a4711c52c)"><g fill="#e1c340" fill-opacity="1"><g transform="translate(7.315731, 6.686481)"><g><path d="M 4.28125 0.734375 C 4.132812 0.679688 3.816406 0.609375 3.328125 0.515625 C 2.847656 0.421875 2.34375 0.332031 1.8125 0.25 C 1.03125 0.132812 0.503906 0.0625 0.234375 0.03125 L 0.296875 -0.359375 C 0.660156 -0.617188 1.210938 -1.097656 1.953125 -1.796875 C 2.691406 -2.503906 3.492188 -3.3125 4.359375 -4.21875 L 3.46875 -4.375 C 2.976562 -4.46875 2.609375 -4.535156 2.359375 -4.578125 C 2.085938 -4.617188 1.863281 -4.632812 1.6875 -4.625 C 1.519531 -4.613281 1.382812 -4.585938 1.28125 -4.546875 C 1.25 -4.703125 1.226562 -4.882812 1.21875 -5.09375 C 1.21875 -5.300781 1.234375 -5.492188 1.265625 -5.671875 C 1.648438 -5.523438 2.320312 -5.378906 3.28125 -5.234375 C 3.726562 -5.160156 4.09375 -5.125 4.375 -5.125 C 4.664062 -5.125 4.921875 -5.171875 5.140625 -5.265625 C 5.347656 -5.117188 5.429688 -4.929688 5.390625 -4.703125 C 5.367188 -4.535156 5.300781 -4.382812 5.1875 -4.25 C 4.9375 -4 4.554688 -3.628906 4.046875 -3.140625 C 2.660156 -1.773438 1.820312 -0.941406 1.53125 -0.640625 C 1.988281 -0.492188 2.429688 -0.390625 2.859375 -0.328125 C 3.171875 -0.273438 3.492188 -0.25 3.828125 -0.25 C 4.171875 -0.25 4.453125 -0.28125 4.671875 -0.34375 C 4.640625 -0.15625 4.585938 0.046875 4.515625 0.265625 C 4.441406 0.484375 4.363281 0.640625 4.28125 0.734375 Z M 4.28125 0.734375 "/></g></g></g></g></g></g></g><path fill="#e1c340" d="M 178.511719 255.996094 L 156.597656 255.996094 L 156.597656 255.246094 L 178.511719 255.246094 Z M 178.511719 255.996094 " fill-opacity="1" fill-rule="nonzero"/><g fill="#e1c340" fill-opacity="1"><g transform="translate(178.512298, 256.744142)"><g><path d="M -2.953125 -0.0625 C -2.265625 -0.0625 -1.726562 0.140625 -1.34375 0.546875 C -0.96875 0.953125 -0.78125 1.53125 -0.78125 2.28125 C -0.78125 3.0625 -0.765625 3.816406 -0.734375 4.546875 C -0.703125 5.285156 -0.660156 5.769531 -0.609375 6 C -0.804688 6.039062 -1.003906 6.0625 -1.203125 6.0625 C -1.398438 6.0625 -1.625 6.039062 -1.875 6 C -1.832031 4.882812 -1.8125 3.628906 -1.8125 2.234375 C -1.8125 1.203125 -2.265625 0.6875 -3.171875 0.6875 C -4.140625 0.6875 -4.625 1.15625 -4.625 2.09375 C -4.625 4.238281 -4.59375 5.539062 -4.53125 6 C -4.675781 6.039062 -4.816406 6.0625 -4.953125 6.0625 C -5.085938 6.0625 -5.242188 6.039062 -5.421875 6 C -5.398438 5.5625 -5.378906 4.976562 -5.359375 4.25 C -5.335938 3.519531 -5.328125 2.878906 -5.328125 2.328125 C -5.328125 1.628906 -5.144531 1.054688 -4.78125 0.609375 C -4.425781 0.160156 -3.816406 -0.0625 -2.953125 -0.0625 Z M -2.953125 -0.0625 "/></g></g></g><g fill="#e1c340" fill-opacity="1"><g transform="translate(171.873329, 256.744142)"><g><path d="M -2.40625 -0.125 C -1.65625 -0.125 -1 0.0078125 -0.4375 0.28125 C -0.4375 0.4375 -0.445312 0.578125 -0.46875 0.703125 C -0.5 0.828125 -0.550781 0.953125 -0.625 1.078125 C -0.800781 0.898438 -1.039062 0.757812 -1.34375 0.65625 C -1.644531 0.550781 -1.972656 0.5 -2.328125 0.5 C -2.742188 0.5 -3.054688 0.578125 -3.265625 0.734375 C -3.484375 0.898438 -3.59375 1.128906 -3.59375 1.421875 C -3.59375 1.671875 -3.484375 1.878906 -3.265625 2.046875 C -3.054688 2.210938 -2.726562 2.40625 -2.28125 2.625 C -1.882812 2.832031 -1.570312 3.007812 -1.34375 3.15625 C -1.113281 3.300781 -0.914062 3.492188 -0.75 3.734375 C -0.582031 3.972656 -0.5 4.253906 -0.5 4.578125 C -0.5 5.023438 -0.703125 5.382812 -1.109375 5.65625 C -1.523438 5.925781 -2.082031 6.0625 -2.78125 6.0625 C -3.414062 6.0625 -3.953125 5.972656 -4.390625 5.796875 C -4.390625 5.628906 -4.359375 5.4375 -4.296875 5.21875 C -4.234375 5.007812 -4.160156 4.84375 -4.078125 4.71875 C -3.765625 4.945312 -3.4375 5.132812 -3.09375 5.28125 C -2.757812 5.4375 -2.488281 5.515625 -2.28125 5.515625 C -2.113281 5.484375 -1.953125 5.390625 -1.796875 5.234375 C -1.648438 5.085938 -1.578125 4.910156 -1.578125 4.703125 C -1.578125 4.421875 -1.6875 4.191406 -1.90625 4.015625 C -2.125 3.847656 -2.460938 3.648438 -2.921875 3.421875 C -3.296875 3.234375 -3.597656 3.066406 -3.828125 2.921875 C -4.054688 2.773438 -4.25 2.585938 -4.40625 2.359375 C -4.570312 2.140625 -4.65625 1.875 -4.65625 1.5625 C -4.65625 1.019531 -4.46875 0.601562 -4.09375 0.3125 C -3.71875 0.0195312 -3.15625 -0.125 -2.40625 -0.125 Z M -2.40625 -0.125 "/></g></g></g><g fill="#e1c340" fill-opacity="1"><g transform="translate(166.155106, 256.744142)"><g><path d="M -1.40625 -0.0625 C -1.226562 -0.0625 -1.019531 -0.0390625 -0.78125 0 C -0.8125 0.375 -0.835938 0.890625 -0.859375 1.546875 C -0.890625 2.210938 -0.90625 2.84375 -0.90625 3.4375 C -0.90625 4.820312 -0.835938 5.675781 -0.703125 6 C -0.921875 6.039062 -1.125 6.0625 -1.3125 6.0625 C -1.507812 6.0625 -1.734375 6.039062 -1.984375 6 C -1.953125 5.625 -1.921875 5.109375 -1.890625 4.453125 C -1.867188 3.796875 -1.859375 3.171875 -1.859375 2.578125 C -1.859375 1.191406 -1.921875 0.332031 -2.046875 0 C -1.835938 -0.0390625 -1.625 -0.0625 -1.40625 -0.0625 Z M -1.40625 -0.0625 "/></g></g></g><g fill="#e1c340" fill-opacity="1"><g transform="translate(162.778527, 256.744142)"><g><path d="M -3.078125 -0.125 C -2.234375 -0.125 -1.585938 0.117188 -1.140625 0.609375 C -0.703125 1.109375 -0.484375 1.816406 -0.484375 2.734375 C -0.484375 3.378906 -0.609375 3.953125 -0.859375 4.453125 C -1.109375 4.960938 -1.460938 5.359375 -1.921875 5.640625 C -2.378906 5.921875 -2.90625 6.0625 -3.5 6.0625 C -4.144531 6.0625 -4.695312 5.972656 -5.15625 5.796875 C -5.15625 5.628906 -5.125 5.4375 -5.0625 5.21875 C -5.007812 5.007812 -4.941406 4.84375 -4.859375 4.71875 C -4.535156 4.9375 -4.191406 5.117188 -3.828125 5.265625 C -3.460938 5.421875 -3.175781 5.5 -2.96875 5.5 C -2.71875 5.445312 -2.484375 5.296875 -2.265625 5.046875 C -2.046875 4.796875 -1.875 4.492188 -1.75 4.140625 C -1.625 3.796875 -1.5625 3.4375 -1.5625 3.0625 C -1.5625 2.289062 -1.726562 1.710938 -2.0625 1.328125 C -2.40625 0.953125 -2.851562 0.765625 -3.40625 0.765625 C -4.15625 0.765625 -4.769531 0.898438 -5.25 1.171875 L -5.328125 0.890625 C -5.078125 0.585938 -4.742188 0.34375 -4.328125 0.15625 C -3.910156 -0.03125 -3.492188 -0.125 -3.078125 -0.125 Z M -3.078125 -0.125 "/></g></g></g></svg>